<?xml version="1.0" standalone="no"?>
<!DOCTYPE svg PUBLIC "-//W3C//DTD SVG 20010904//EN"
 "http://www.w3.org/TR/2001/REC-SVG-20010904/DTD/svg10.dtd">
<svg version="1.0" xmlns="http://www.w3.org/2000/svg"
 width="2852.000000pt" height="1042.000000pt" viewBox="0 0 2852.000000 1042.000000"
 preserveAspectRatio="xMidYMid meet">

<g transform="translate(0.000000,1042.000000) scale(0.100000,-0.100000)"
fill="#000000" stroke="none">
<path d="M4930 10339 c-275 -19 -712 -80 -962 -134 -254 -56 -606 -171 -867
-282 -215 -92 -469 -226 -789 -418 -18 -11 -85 -59 -147 -107 -63 -48 -124
-92 -136 -99 -37 -19 -296 -248 -425 -375 -322 -318 -455 -485 -745 -939 -126
-197 -285 -516 -399 -799 -87 -217 -156 -454 -211 -721 -23 -110 -43 -203 -45
-206 -7 -12 -54 -411 -68 -584 -42 -499 -42 -829 -1 -1255 33 -346 130 -771
248 -1090 165 -443 454 -1017 632 -1255 249 -332 684 -766 1015 -1012 450
-335 866 -558 1390 -745 394 -140 723 -218 1165 -275 216 -28 682 -25 960 5
478 52 815 123 1217 256 608 201 1161 507 1597 882 184 158 527 506 645 654
112 140 332 464 428 630 95 164 185 340 238 470 29 69 70 168 92 220 140 337
276 850 327 1235 31 229 43 944 21 1221 -53 667 -240 1342 -552 1994 -151 314
-398 686 -679 1025 -115 138 -456 478 -558 556 -46 35 -127 97 -180 137 -156
120 -385 270 -553 363 -196 109 -525 273 -598 298 -30 10 -87 32 -126 49 -153
65 -551 175 -803 222 -320 60 -856 97 -1131 79z m610 -543 c386 -62 639 -150
933 -325 247 -147 421 -290 625 -511 275 -300 425 -540 581 -935 162 -411 221
-651 318 -1299 l47 -311 4 -524 c4 -583 -3 -770 -48 -1226 -47 -488 -68 -629
-145 -960 -109 -471 -151 -626 -252 -930 -103 -309 -112 -331 -255 -617 -207
-416 -329 -592 -575 -829 -179 -172 -344 -290 -568 -404 -381 -193 -609 -245
-1087 -245 -274 0 -425 17 -633 70 -256 65 -431 143 -643 287 -327 221 -584
488 -803 833 -72 113 -246 454 -287 560 -102 269 -194 562 -281 901 -133 516
-188 849 -231 1409 -11 146 -25 330 -32 410 -6 82 -11 342 -11 600 0 419 2
476 27 725 69 701 75 741 186 1160 86 321 95 348 160 480 38 77 80 169 93 205
41 109 75 169 177 305 53 72 107 147 120 168 36 61 267 300 351 364 42 32 105
84 140 114 88 77 160 122 356 222 403 204 608 276 912 318 201 27 602 20 821
-15z"/>
<path d="M3576 8409 c-68 -54 -193 -268 -276 -474 -48 -119 -116 -339 -162
-520 -22 -88 -53 -207 -69 -265 -47 -165 -40 -234 30 -293 47 -39 115 -50 275
-44 110 4 165 12 250 34 154 40 150 33 154 271 2 113 -3 262 -12 377 -9 104
-23 287 -31 405 -26 356 -53 492 -103 519 -27 14 -25 14 -56 -10z"/>
<path d="M6662 8398 c-83 -104 -162 -519 -192 -1008 -14 -232 -13 -374 4 -413
18 -43 99 -117 161 -147 49 -24 56 -25 275 -25 260 0 285 5 296 63 10 54 -2
206 -26 322 -56 268 -233 846 -305 995 -81 167 -174 260 -213 213z"/>
<path d="M3083 6444 c-124 -20 -222 -54 -284 -100 l-51 -37 4 -121 c3 -86 9
-130 21 -152 22 -43 81 -93 143 -120 70 -31 235 -81 314 -95 102 -18 410 -15
505 5 175 36 345 155 375 261 7 27 14 77 14 111 1 58 -1 65 -33 98 -59 61
-185 109 -376 142 -130 23 -511 28 -632 8z"/>
<path d="M6565 6439 c-247 -23 -372 -65 -423 -141 -21 -33 -27 -56 -30 -114
-6 -101 14 -149 92 -221 111 -103 255 -148 511 -159 325 -15 563 43 687 167
56 56 112 166 112 220 1 70 -96 157 -219 198 -137 45 -511 71 -730 50z"/>
<path d="M3035 5590 c-54 -8 -65 -16 -65 -51 0 -54 58 -103 173 -147 188 -72
287 -89 388 -67 132 29 325 117 354 162 19 29 11 61 -18 73 -12 4 -142 8 -288
9 -146 0 -294 4 -330 10 -92 14 -168 18 -214 11z"/>
<path d="M6410 5563 c-8 -3 -18 -11 -22 -17 -29 -43 27 -99 157 -159 232 -106
411 -101 650 19 127 64 158 111 88 135 -21 7 -103 15 -183 19 -188 8 -671 11
-690 3z"/>
<path d="M3049 5033 c-27 -79 -3 -523 41 -738 30 -152 118 -514 151 -625 43
-146 96 -277 194 -475 81 -165 142 -255 170 -255 15 0 20 22 30 125 3 33 21
166 40 295 35 243 99 775 110 915 14 182 22 527 15 619 -12 157 -21 161 -374
165 -92 1 -212 4 -266 7 l-98 5 -13 -38z"/>
<path d="M6580 5051 l-65 -6 -14 -50 c-19 -71 -27 -624 -12 -826 22 -288 84
-781 111 -889 5 -19 14 -88 20 -153 10 -117 32 -199 49 -181 5 5 21 45 36 89
31 90 54 132 103 190 52 62 98 166 148 339 25 87 72 229 105 315 102 264 135
411 158 694 13 146 14 427 3 443 -22 34 -56 38 -317 39 -143 1 -289 -1 -325
-4z"/>
<path d="M4395 2305 c-173 -33 -272 -75 -312 -134 -93 -138 114 -287 477 -343
117 -18 757 -18 945 0 233 23 405 62 516 117 101 52 195 156 184 205 -10 43
-81 98 -154 120 -108 32 -272 40 -941 45 -537 4 -647 3 -715 -10z"/>
<path d="M4795 1549 c-108 -14 -152 -34 -175 -80 -50 -97 -4 -135 211 -179
128 -26 436 -39 519 -21 71 15 229 76 271 104 48 33 57 52 39 84 -43 75 -131
92 -515 98 -154 2 -311 0 -350 -6z"/>
<path d="M15226 8238 c-14 -21 -117 -269 -356 -853 -55 -132 -116 -283 -138
-335 -22 -52 -125 -304 -230 -560 -105 -256 -245 -598 -312 -760 -104 -253
-261 -638 -476 -1165 -29 -71 -49 -133 -45 -138 4 -4 92 -6 196 -5 l188 3 48
120 c27 66 113 284 192 485 l143 365 799 0 799 0 190 -480 c104 -264 194 -483
200 -487 13 -9 372 -6 381 4 4 3 -21 75 -55 160 -113 280 -773 1897 -910 2228
-37 91 -157 381 -265 645 -239 581 -325 789 -330 793 -2 2 -10 -7 -19 -20z
m27 -865 c3 -10 55 -144 116 -298 233 -584 511 -1300 511 -1317 0 -10 -1277
-5 -1287 5 -5 5 73 204 424 1085 120 298 220 542 224 542 4 0 9 -8 12 -17z"/>
<path d="M21697 8224 c-34 -66 -631 -1501 -990 -2379 -123 -301 -191 -468
-481 -1174 -53 -128 -93 -237 -90 -242 3 -5 92 -9 197 -9 l192 0 24 63 c55
142 275 700 317 805 l46 112 796 -2 796 -3 23 -55 c12 -30 97 -244 188 -475
92 -231 174 -426 183 -433 23 -17 382 -17 382 1 0 13 -32 96 -133 342 -511
1248 -829 2024 -1127 2745 -106 256 -214 518 -240 582 -67 161 -64 158 -83
122z m148 -1159 c142 -359 363 -924 450 -1148 31 -82 54 -152 50 -155 -8 -8
-1271 -9 -1279 -1 -7 7 52 160 313 814 227 566 331 818 336 813 2 -2 61 -147
130 -323z"/>
<path d="M24222 8198 c-30 -142 -178 -818 -322 -1478 -125 -572 -397 -1824
-482 -2217 -18 -86 -24 -83 181 -83 l179 0 16 73 c9 39 74 342 146 672 217
997 239 1097 316 1439 41 181 78 335 82 343 8 14 86 -178 524 -1297 115 -294
284 -723 374 -952 90 -230 164 -422 164 -426 0 -5 6 -17 14 -27 15 -21 66 105
476 1160 111 286 222 572 247 635 25 63 87 223 138 355 109 281 215 546 222
559 3 5 9 2 14 -6 8 -15 142 -615 309 -1383 182 -837 240 -1100 250 -1122 9
-23 12 -23 190 -23 166 0 180 1 180 18 0 10 -18 98 -39 197 -22 99 -155 709
-296 1355 -441 2023 -493 2256 -505 2243 -4 -4 -35 -80 -69 -168 -198 -513
-401 -1041 -481 -1250 -99 -260 -317 -823 -355 -920 -130 -332 -257 -650 -266
-667 -12 -22 -46 62 -271 652 -38 102 -125 329 -193 505 -68 176 -204 532
-304 790 -182 476 -335 870 -387 1003 -16 39 -32 72 -35 72 -3 0 -11 -24 -17
-52z"/>
<path d="M17275 8078 c-3 -84 -5 -942 -3 -1906 l3 -1754 180 2 c98 0 180 2
181 3 3 4 14 1663 14 2157 l1 485 24 -30 c14 -16 69 -93 123 -170 54 -77 168
-239 253 -360 85 -121 238 -338 339 -483 102 -144 221 -313 264 -375 44 -61
185 -263 314 -447 130 -184 289 -411 355 -505 66 -93 167 -237 225 -320 58
-82 109 -154 114 -160 4 -5 8 851 8 1903 l0 1912 -185 0 -185 0 -1 -802 c-1
-442 -5 -1034 -8 -1315 l-6 -513 -300 427 c-165 235 -345 490 -399 568 -54 77
-129 183 -166 235 -37 52 -127 181 -200 285 -381 541 -931 1315 -935 1315 -2
0 -6 -69 -10 -152z"/>
<path d="M10820 6225 l0 -1805 183 2 182 3 3 803 2 802 820 0 820 0 0 -803 c0
-442 2 -806 4 -808 2 -2 85 -3 184 -1 l179 3 5 1785 c3 982 4 1794 1 1805 -5
18 -16 19 -189 19 l-184 0 0 -805 0 -805 -820 0 -820 0 0 805 0 805 -185 0
-185 0 0 -1805z"/>
<path d="M27902 6224 l3 -1806 174 2 c96 0 178 3 183 6 4 3 8 815 8 1805 l0
1799 -185 0 -185 0 2 -1806z"/>
<path d="M10845 2820 c-114 -12 -245 -92 -287 -173 -29 -58 -37 -190 -14 -250
19 -52 83 -116 149 -150 26 -14 131 -53 235 -86 292 -95 348 -136 346 -251 -2
-113 -68 -186 -199 -215 -57 -13 -252 -7 -289 9 -53 22 -103 63 -127 105 -30
50 -47 61 -90 61 -78 0 -85 -17 -40 -95 53 -92 149 -160 259 -184 76 -16 255
-13 332 5 213 50 323 225 264 423 -33 113 -129 174 -390 250 -226 66 -286 99
-324 176 -46 95 -8 193 96 245 41 21 66 25 160 28 94 4 118 1 156 -16 52 -22
114 -75 123 -103 5 -16 16 -19 66 -19 63 0 68 5 49 54 -14 37 -75 101 -123
129 -87 51 -216 72 -352 57z"/>
<path d="M20640 2820 c-75 -13 -202 -78 -281 -144 -82 -67 -157 -177 -190
-277 -35 -108 -34 -270 5 -386 144 -440 683 -573 1020 -253 178 170 235 397
162 645 -34 114 -156 264 -270 334 -122 73 -300 106 -446 81z m291 -140 c266
-100 401 -388 304 -646 -64 -171 -218 -299 -391 -326 -96 -14 -216 2 -299 42
-201 96 -324 352 -274 570 40 175 216 350 380 379 79 14 218 5 280 -19z"/>
<path d="M12510 2765 l0 -55 150 0 150 0 1 -137 c1 -76 2 -158 3 -183 1 -25 3
-212 4 -416 l2 -370 53 1 52 1 3 546 2 546 23 6 c12 3 79 6 150 6 l127 0 0 55
0 55 -360 0 -360 0 0 -55z"/>
<path d="M14410 2813 c-1 -4 0 -219 0 -477 l1 -470 31 -59 c42 -79 103 -139
176 -176 77 -39 138 -48 287 -41 107 5 127 9 180 35 84 42 166 125 196 200 23
60 23 63 27 528 l4 467 -61 0 -60 0 -3 -462 c-2 -328 -7 -471 -15 -490 -18
-40 -82 -107 -122 -128 -54 -27 -96 -33 -213 -32 -129 1 -164 16 -250 104
l-58 59 -1 447 c-1 246 -2 458 -2 472 -2 23 -6 25 -59 28 -32 2 -58 -1 -58 -5z"/>
<path d="M16580 2205 l0 -618 198 6 c226 7 313 22 417 73 155 76 264 213 310
389 19 76 19 224 0 300 -46 176 -183 335 -347 402 -99 40 -180 52 -385 59
l-193 7 0 -618z m340 485 c63 -5 135 -17 160 -27 116 -42 229 -144 283 -252
29 -60 32 -76 36 -177 5 -183 -31 -279 -146 -384 -109 -99 -197 -129 -405
-137 l-148 -6 0 497 0 496 53 0 c28 0 104 -5 167 -10z"/>
<path d="M18770 2813 c-1 -5 -2 -282 -3 -616 l-2 -608 60 3 60 3 2 597 c2 328
0 604 -3 612 -5 12 -20 16 -60 16 -30 0 -54 -3 -54 -7z"/>
</g>
</svg>
